<mxfile host="app.diagrams.net" agent="Mozilla/5.0 (X11; Linux x86_64) AppleWebKit/537.36 (KHTML, like Gecko) Chrome/131.0.0.0 Safari/537.36" version="25.0.3">
  <diagram name="Page-1" id="jrg9tLOajMAby8cDYysk">
    <mxGraphModel dx="1432" dy="885" grid="1" gridSize="10" guides="1" tooltips="1" connect="1" arrows="1" fold="1" page="1" pageScale="1" pageWidth="850" pageHeight="1100" math="0" shadow="0">
      <root>
        <mxCell id="0" />
        <mxCell id="1" parent="0" />
        <mxCell id="hra3Uuyj_CtMtoS0qMZN-8" style="edgeStyle=orthogonalEdgeStyle;rounded=0;orthogonalLoop=1;jettySize=auto;html=1;exitX=1;exitY=0.5;exitDx=0;exitDy=0;" edge="1" parent="1" source="hra3Uuyj_CtMtoS0qMZN-2" target="hra3Uuyj_CtMtoS0qMZN-5">
          <mxGeometry relative="1" as="geometry">
            <Array as="points">
              <mxPoint x="393.75" y="585" />
              <mxPoint x="393.75" y="624" />
            </Array>
          </mxGeometry>
        </mxCell>
        <mxCell id="hra3Uuyj_CtMtoS0qMZN-2" value="" style="image;aspect=fixed;perimeter=ellipsePerimeter;html=1;align=center;shadow=0;dashed=0;spacingTop=3;image=img/lib/active_directory/laptop_client.svg;" vertex="1" parent="1">
          <mxGeometry x="200" y="560" width="45" height="50" as="geometry" />
        </mxCell>
        <mxCell id="hra3Uuyj_CtMtoS0qMZN-7" style="edgeStyle=orthogonalEdgeStyle;rounded=0;orthogonalLoop=1;jettySize=auto;html=1;exitX=1;exitY=0.5;exitDx=0;exitDy=0;exitPerimeter=0;entryX=0;entryY=0.5;entryDx=0;entryDy=0;entryPerimeter=0;" edge="1" parent="1" source="hra3Uuyj_CtMtoS0qMZN-3" target="hra3Uuyj_CtMtoS0qMZN-5">
          <mxGeometry relative="1" as="geometry">
            <mxPoint x="393.75" y="530" as="targetPoint" />
            <Array as="points">
              <mxPoint x="393.75" y="685" />
              <mxPoint x="393.75" y="624" />
            </Array>
          </mxGeometry>
        </mxCell>
        <mxCell id="hra3Uuyj_CtMtoS0qMZN-3" value="" style="sketch=0;points=[[0.015,0.015,0],[0.985,0.015,0],[0.985,0.985,0],[0.015,0.985,0],[0.25,0,0],[0.5,0,0],[0.75,0,0],[1,0.25,0],[1,0.5,0],[1,0.75,0],[0.75,1,0],[0.5,1,0],[0.25,1,0],[0,0.75,0],[0,0.5,0],[0,0.25,0]];verticalLabelPosition=bottom;html=1;verticalAlign=top;aspect=fixed;align=center;pointerEvents=1;shape=mxgraph.cisco19.handheld;fillColor=#005073;strokeColor=none;" vertex="1" parent="1">
          <mxGeometry x="203.75" y="660" width="37.5" height="50" as="geometry" />
        </mxCell>
        <mxCell id="hra3Uuyj_CtMtoS0qMZN-4" value="" style="points=[];aspect=fixed;html=1;align=center;shadow=0;dashed=0;fillColor=#FF6A00;strokeColor=none;shape=mxgraph.alibaba_cloud.dns_domain_name_system;" vertex="1" parent="1">
          <mxGeometry x="363.75" y="420" width="55.800000000000004" height="54.900000000000006" as="geometry" />
        </mxCell>
        <mxCell id="hra3Uuyj_CtMtoS0qMZN-13" style="edgeStyle=orthogonalEdgeStyle;rounded=0;orthogonalLoop=1;jettySize=auto;html=1;exitX=1;exitY=0.5;exitDx=0;exitDy=0;exitPerimeter=0;" edge="1" parent="1" source="hra3Uuyj_CtMtoS0qMZN-5" target="hra3Uuyj_CtMtoS0qMZN-11">
          <mxGeometry relative="1" as="geometry" />
        </mxCell>
        <mxCell id="hra3Uuyj_CtMtoS0qMZN-19" style="edgeStyle=orthogonalEdgeStyle;rounded=0;orthogonalLoop=1;jettySize=auto;html=1;exitX=0.5;exitY=1;exitDx=0;exitDy=0;exitPerimeter=0;" edge="1" parent="1" source="hra3Uuyj_CtMtoS0qMZN-5" target="hra3Uuyj_CtMtoS0qMZN-18">
          <mxGeometry relative="1" as="geometry" />
        </mxCell>
        <mxCell id="hra3Uuyj_CtMtoS0qMZN-5" value="" style="outlineConnect=0;dashed=0;verticalLabelPosition=bottom;verticalAlign=top;align=center;html=1;shape=mxgraph.aws3.classic_load_balancer;fillColor=#F58536;gradientColor=none;" vertex="1" parent="1">
          <mxGeometry x="483.75" y="588" width="69" height="72" as="geometry" />
        </mxCell>
        <mxCell id="hra3Uuyj_CtMtoS0qMZN-6" style="edgeStyle=orthogonalEdgeStyle;rounded=0;orthogonalLoop=1;jettySize=auto;html=1;exitX=1;exitY=0.5;exitDx=0;exitDy=0;entryX=0.538;entryY=1.075;entryDx=0;entryDy=0;entryPerimeter=0;" edge="1" parent="1" source="hra3Uuyj_CtMtoS0qMZN-2" target="hra3Uuyj_CtMtoS0qMZN-4">
          <mxGeometry relative="1" as="geometry">
            <mxPoint x="391.75" y="530" as="targetPoint" />
          </mxGeometry>
        </mxCell>
        <mxCell id="hra3Uuyj_CtMtoS0qMZN-22" style="edgeStyle=orthogonalEdgeStyle;rounded=0;orthogonalLoop=1;jettySize=auto;html=1;exitX=0;exitY=0.5;exitDx=0;exitDy=0;" edge="1" parent="1" source="hra3Uuyj_CtMtoS0qMZN-9" target="hra3Uuyj_CtMtoS0qMZN-21">
          <mxGeometry relative="1" as="geometry" />
        </mxCell>
        <mxCell id="hra3Uuyj_CtMtoS0qMZN-23" style="edgeStyle=orthogonalEdgeStyle;rounded=0;orthogonalLoop=1;jettySize=auto;html=1;exitX=1;exitY=0.5;exitDx=0;exitDy=0;" edge="1" parent="1" source="hra3Uuyj_CtMtoS0qMZN-9" target="hra3Uuyj_CtMtoS0qMZN-20">
          <mxGeometry relative="1" as="geometry" />
        </mxCell>
        <mxCell id="hra3Uuyj_CtMtoS0qMZN-9" value="AI agents server" style="image;aspect=fixed;perimeter=ellipsePerimeter;html=1;align=center;shadow=0;dashed=0;spacingTop=3;image=img/lib/active_directory/generic_server.svg;" vertex="1" parent="1">
          <mxGeometry x="616" y="470" width="28.000000000000004" height="50" as="geometry" />
        </mxCell>
        <mxCell id="hra3Uuyj_CtMtoS0qMZN-10" value="Database" style="image;aspect=fixed;perimeter=ellipsePerimeter;html=1;align=center;shadow=0;dashed=0;spacingTop=3;image=img/lib/active_directory/database_server.svg;" vertex="1" parent="1">
          <mxGeometry x="770" y="599" width="41" height="50" as="geometry" />
        </mxCell>
        <mxCell id="hra3Uuyj_CtMtoS0qMZN-15" style="edgeStyle=orthogonalEdgeStyle;rounded=0;orthogonalLoop=1;jettySize=auto;html=1;exitX=1;exitY=0.5;exitDx=0;exitDy=0;" edge="1" parent="1" source="hra3Uuyj_CtMtoS0qMZN-11" target="hra3Uuyj_CtMtoS0qMZN-10">
          <mxGeometry relative="1" as="geometry" />
        </mxCell>
        <mxCell id="hra3Uuyj_CtMtoS0qMZN-16" style="edgeStyle=orthogonalEdgeStyle;rounded=0;orthogonalLoop=1;jettySize=auto;html=1;exitX=0.5;exitY=0;exitDx=0;exitDy=0;" edge="1" parent="1" source="hra3Uuyj_CtMtoS0qMZN-11" target="hra3Uuyj_CtMtoS0qMZN-9">
          <mxGeometry relative="1" as="geometry" />
        </mxCell>
        <mxCell id="hra3Uuyj_CtMtoS0qMZN-11" value="Backend server" style="image;aspect=fixed;perimeter=ellipsePerimeter;html=1;align=center;shadow=0;dashed=0;spacingTop=3;image=img/lib/active_directory/web_server.svg;" vertex="1" parent="1">
          <mxGeometry x="610" y="599" width="40" height="50" as="geometry" />
        </mxCell>
        <mxCell id="hra3Uuyj_CtMtoS0qMZN-12" value="Object storage" style="outlineConnect=0;dashed=0;verticalLabelPosition=bottom;verticalAlign=top;align=center;html=1;shape=mxgraph.aws3.bucket_with_objects;fillColor=#4d75d3;gradientColor=none;" vertex="1" parent="1">
          <mxGeometry x="760" y="760" width="40.49" height="41.5" as="geometry" />
        </mxCell>
        <mxCell id="hra3Uuyj_CtMtoS0qMZN-14" style="edgeStyle=orthogonalEdgeStyle;rounded=0;orthogonalLoop=1;jettySize=auto;html=1;exitX=0.5;exitY=1;exitDx=0;exitDy=0;entryX=0.06;entryY=0.5;entryDx=0;entryDy=0;entryPerimeter=0;" edge="1" parent="1" source="hra3Uuyj_CtMtoS0qMZN-11" target="hra3Uuyj_CtMtoS0qMZN-12">
          <mxGeometry relative="1" as="geometry">
            <Array as="points">
              <mxPoint x="630" y="781" />
            </Array>
          </mxGeometry>
        </mxCell>
        <mxCell id="hra3Uuyj_CtMtoS0qMZN-18" value="Frontend server" style="image;aspect=fixed;perimeter=ellipsePerimeter;html=1;align=center;shadow=0;dashed=0;spacingTop=3;image=img/lib/active_directory/web_server.svg;" vertex="1" parent="1">
          <mxGeometry x="498.25" y="780" width="40" height="50" as="geometry" />
        </mxCell>
        <mxCell id="hra3Uuyj_CtMtoS0qMZN-21" value="" style="shape=image;verticalLabelPosition=bottom;labelBackgroundColor=default;verticalAlign=top;aspect=fixed;imageAspect=0;image=https://upload.wikimedia.org/wikipedia/commons/4/45/Gemini_language_model_logo.png;" vertex="1" parent="1">
          <mxGeometry x="538.25" y="340" width="87.09" height="32.09" as="geometry" />
        </mxCell>
        <mxCell id="hra3Uuyj_CtMtoS0qMZN-28" value="" style="group" vertex="1" connectable="0" parent="1">
          <mxGeometry x="660" y="318" width="100" height="81.10000000000002" as="geometry" />
        </mxCell>
        <mxCell id="hra3Uuyj_CtMtoS0qMZN-20" value="" style="points=[];aspect=fixed;html=1;align=center;shadow=0;dashed=0;fillColor=#FF6A00;strokeColor=none;shape=mxgraph.alibaba_cloud.multimediaai;" vertex="1" parent="hra3Uuyj_CtMtoS0qMZN-28">
          <mxGeometry x="20" y="22" width="60" height="59.1" as="geometry" />
        </mxCell>
        <mxCell id="hra3Uuyj_CtMtoS0qMZN-27" value="Speech to text" style="text;html=1;align=center;verticalAlign=middle;resizable=0;points=[];autosize=1;strokeColor=none;fillColor=none;" vertex="1" parent="hra3Uuyj_CtMtoS0qMZN-28">
          <mxGeometry width="100" height="30" as="geometry" />
        </mxCell>
      </root>
    </mxGraphModel>
  </diagram>
</mxfile>
